<svg id="Layer_1" data-name="Layer 1" xmlns="http://www.w3.org/2000/svg" xmlns:xlink="http://www.w3.org/1999/xlink" viewBox="0 0 396 394"><defs><style>.cls-1{fill:none;stroke:#000;stroke-width:10px;}.cls-1,.cls-5{stroke-miterlimit:10;}.cls-2{fill:url(#radial-gradient);}.cls-3{fill:#b3b3b3;}.cls-4{fill:url(#radial-gradient-2);}.cls-5{fill:#ccc;stroke:#b3b3b3;}</style><radialGradient id="radial-gradient" cx="1048" cy="540" r="180" gradientUnits="userSpaceOnUse"><stop offset="0" stop-color="#333"/><stop offset="0" stop-color="#1a1a1a"/></radialGradient><radialGradient id="radial-gradient-2" cx="345.5" cy="50.5" r="50.5" xlink:href="#radial-gradient"/></defs><title>u-square2</title><path class="cls-1" d="M1135,811" transform="translate(-864 -325)"/><path class="cls-1" d="M776,811" transform="translate(-864 -325)"/><path class="cls-2" d="M1152,402V359H881a17,17,0,0,0-17,17V702a17,17,0,0,0,17,17h326a17,17,0,0,0,17-17V432h-42A30.09,30.09,0,0,1,1152,402Z" transform="translate(-864 -325)"/><path class="cls-3" d="M1135,657H953a26,26,0,0,1-26-26V449a26,26,0,0,1,26-26h182a26,26,0,0,1,26,26V631A26,26,0,0,1,1135,657ZM953,441a8,8,0,0,0-8,8V631a8,8,0,0,0,8,8h182a8,8,0,0,0,8-8V449a8,8,0,0,0-8-8Z" transform="translate(-864 -325)"/><path class="cls-3" d="M1079,657h-74.37l-1-.24A69.46,69.46,0,0,1,978.72,644c-11.28-9-24.72-25.66-24.72-54V480c0-11.38,10.08-21,22-21h29a22,22,0,0,1,22,22v62.13a47.36,47.36,0,0,0,24,41.18l3.7,2.09a64.74,64.74,0,0,0,6.26,3.14V481a22,22,0,0,1,22-22h28.88a22,22,0,0,1,22,22.2l-.6,64.62a64.51,64.51,0,0,1-29.38,53.73c-8.91,5.77-17,9.22-24.9,10.36Zm-72.14-18H1061V608.61a69.24,69.24,0,0,1-15.11-6.53l-3.7-2.09a65.39,65.39,0,0,1-33.2-56.86V481a4,4,0,0,0-4-4H976c-2.35,0-4,1.95-4,3V590C972,626.91,1001.19,637.32,1006.86,639ZM1083,477a4,4,0,0,0-4,4V591.6c4.6-1.1,9.43-3.48,15.1-7.16a46,46,0,0,0,21.18-38.79l.6-64.62a4,4,0,0,0-4-4Z" transform="translate(-864 -325)"/><rect class="cls-4" x="295" width="101" height="101" rx="30" ry="30"/><path class="cls-5" d="M1187.54,411.92a13.89,13.89,0,0,1-1.1-2.76,9.46,9.46,0,0,1-.35-2.46q0-5.22,10.49-12.85,2.91-2.11,4.52-3.31,11.59-8.78,16.94-15.91t5.34-13.8a12.31,12.31,0,0,0-4-9.51q-4-3.64-10.44-3.64a15.27,15.27,0,0,0-8.78,2.48,20.62,20.62,0,0,0-6.42,7.8,10.44,10.44,0,0,1-3.16-3,6.11,6.11,0,0,1-1.05-3.41q0-5.17,5.65-8.86t14.08-3.69q10.54,0,17.09,5.87a19.48,19.48,0,0,1,6.55,15.21q0,9.59-8.68,19.87t-27.55,23l3.81.1q4.32.1,5.62.1a117.38,117.38,0,0,0,16-.88,27.06,27.06,0,0,0,9.33-2.68,22.05,22.05,0,0,1,1,3.24,13.9,13.9,0,0,1,.33,2.89q0,3.31-2.11,4.64t-7.73,1.33q-4.27,0-12-.25t-11.17-.25q-3.51,0-6.52.18T1187.54,411.92Z" transform="translate(-864 -325)"/></svg>